<?xml version="1.0" encoding="UTF-8" standalone="no"?>
<!-- Created with Inkscape (http://www.inkscape.org/) -->

<svg
   xmlns:dc="http://purl.org/dc/elements/1.1/"
   xmlns:cc="http://creativecommons.org/ns#"
   xmlns:rdf="http://www.w3.org/1999/02/22-rdf-syntax-ns#"
   xmlns:svg="http://www.w3.org/2000/svg"
   xmlns="http://www.w3.org/2000/svg"
   xmlns:xlink="http://www.w3.org/1999/xlink"
   xmlns:sodipodi="http://sodipodi.sourceforge.net/DTD/sodipodi-0.dtd"
   xmlns:inkscape="http://www.inkscape.org/namespaces/inkscape"
   width="700"
   height="600"
   viewBox="0 0 700.00001 600"
   id="svg2"
   version="1.1"
   inkscape:version="0.91 r13725"
   sodipodi:docname="car_dog.svg">
  <defs
     id="defs4">
    <linearGradient
       inkscape:collect="always"
       id="linearGradient4157">
      <stop
         style="stop-color:#000000;stop-opacity:1;"
         offset="0"
         id="stop4159" />
      <stop
         style="stop-color:#000000;stop-opacity:0;"
         offset="1"
         id="stop4161" />
    </linearGradient>
    <linearGradient
       inkscape:collect="always"
       xlink:href="#linearGradient4157"
       id="linearGradient4163"
       x1="504.14648"
       y1="483.82602"
       x2="637.50177"
       y2="417.15594"
       gradientUnits="userSpaceOnUse"
       gradientTransform="matrix(0.49148383,0,0,0.49148383,1926.9527,197.65183)" />
  </defs>
  <sodipodi:namedview
     id="base"
     pagecolor="#ffffff"
     bordercolor="#666666"
     borderopacity="1.0"
     inkscape:pageopacity="0.0"
     inkscape:pageshadow="2"
     inkscape:zoom="0.49497475"
     inkscape:cx="230.2383"
     inkscape:cy="307.12982"
     inkscape:document-units="px"
     inkscape:current-layer="layer1"
     showgrid="false"
     inkscape:window-width="1366"
     inkscape:window-height="715"
     inkscape:window-x="0"
     inkscape:window-y="0"
     inkscape:window-maximized="1"
     inkscape:object-paths="true"
     inkscape:snap-intersection-paths="true"
     inkscape:object-nodes="true"
     inkscape:snap-smooth-nodes="true"
     inkscape:snap-global="false"
     fit-margin-top="0"
     fit-margin-left="0"
     fit-margin-right="0"
     fit-margin-bottom="0"
     units="px" />
  <metadata
     id="metadata7">
    <rdf:RDF>
      <cc:Work
         rdf:about="">
        <dc:format>image/svg+xml</dc:format>
        <dc:type
           rdf:resource="http://purl.org/dc/dcmitype/StillImage" />
        <dc:title></dc:title>
      </cc:Work>
    </rdf:RDF>
  </metadata>
  <g
     inkscape:groupmode="layer"
     id="layer2"
     inkscape:label="mod"
     sodipodi:insensitive="true"
     transform="translate(-1851.5495,-146.62129)">
    <image
       sodipodi:absref="/home/manu/Téléchargements/616473_RB_00_FB.EPS_1000.jpg"
       y="-118.35207"
       x="-65"
       id="image4329"
       xlink:href="file:///home/manu/T%C3%A9l%C3%A9chargements/616473_RB_00_FB.EPS_1000.jpg"
       preserveAspectRatio="none"
       height="1250"
       width="1250" />
  </g>
  <g
     inkscape:label="Calque 1"
     inkscape:groupmode="layer"
     id="layer1"
     style="display:inline;opacity:1"
     transform="translate(-1851.5495,-146.62129)">
    <path
       style="fill:#b48136;fill-opacity:1;fill-rule:evenodd;stroke:none;stroke-width:1px;stroke-linecap:butt;stroke-linejoin:miter;stroke-opacity:1"
       d="m 2392.3543,200.85895 c -3.0597,-0.0489 -5.9617,0.18477 -8.1489,0.76699 -1.7814,0.47423 -3.4402,0.89733 -3.6861,0.94073 -1.9805,0.34925 -3.8654,0.98711 -5.844,1.97841 -1.2788,0.64063 -2.5679,1.01418 -2.8654,0.83034 -0.2975,-0.18383 -0.6335,-0.0572 -0.7468,0.28126 -0.2885,0.86122 -6.564,3.07577 -7.595,2.68012 -0.4665,-0.17899 -1.4758,0.11385 -2.2424,0.65084 -0.7667,0.53698 -2.0073,0.97625 -2.757,0.97625 -0.7496,0 -1.5142,0.24573 -1.7,0.54619 -0.1857,0.30046 -1.0794,0.73237 -1.986,0.95994 -0.9067,0.22755 -2.7753,1.22185 -4.1527,2.20879 -1.6708,1.19721 -3.0156,1.706 -4.0403,1.52821 19.6076,1.96174 35.022,7.59218 49.3787,14.14839 38.8374,17.53438 40.3825,30.83992 43.1805,42.12651 1.9409,26.3887 6.3545,41.40416 11.5854,52.65884 3.9301,2.68812 7.8789,5.43275 11.3541,6.75598 0,-0.6453 0.622,-1.42324 1.3823,-1.72883 0.083,-0.0333 0.1438,-0.0629 0.2179,-0.095 l 0.6681,-0.76218 c 0.1143,-0.52249 0.6935,-1.77762 1.5138,-3.23112 1.7872,-3.1667 1.9547,-3.93335 2.0024,-9.1846 0.035,-3.82671 -0.2032,-5.98482 -0.7161,-6.49777 -0.4224,-0.42239 -0.768,-1.23548 -0.768,-1.80754 0,-0.57207 -0.4147,-1.19932 -0.9215,-1.39382 -0.5387,-0.20672 -0.9215,-1.12779 -0.9215,-2.21648 0,-1.02429 -0.2077,-1.86226 -0.4617,-1.86226 -0.4269,0 -2.7791,-4.71918 -4.8995,-9.82968 -0.4907,-1.18263 -1.2975,-2.9105 -1.7931,-3.83972 -0.5482,-1.02747 -0.6473,-1.68947 -0.2526,-1.68947 1.0062,0 0.765,-1.66659 -0.3004,-2.07537 -0.5221,-0.20035 -1.3762,-1.40539 -1.8978,-2.67724 -0.5217,-1.27186 -1.9892,-4.66238 -3.2618,-7.53448 -1.2727,-2.87211 -2.4672,-6.21009 -2.6542,-7.41834 -0.187,-1.20825 -1.4715,-4.48742 -2.8538,-7.28683 -1.3824,-2.79939 -2.5132,-5.48496 -2.5132,-5.96787 0,-0.48292 -0.5529,-1.96214 -1.2287,-3.2868 -0.6757,-1.32466 -1.2268,-2.90281 -1.2268,-3.50759 0,-1.21216 -2.4443,-6.39556 -3.3165,-7.02763 -0.3027,-0.21932 -0.3814,-0.83994 -0.1747,-1.37847 0.2125,-0.55375 -0.1041,-1.44756 -0.7286,-2.05808 -0.6074,-0.59374 -1.7372,-2.80779 -2.5112,-4.91964 -0.7739,-2.11184 -1.6082,-3.83972 -1.8536,-3.83972 -0.2455,0 -0.9677,-1.17495 -1.606,-2.61101 -0.6382,-1.43605 -1.6485,-3.14629 -2.2443,-3.80132 -0.5958,-0.65502 -1.0828,-1.53502 -1.0828,-1.95537 0,-0.42036 -0.5529,-0.94031 -1.2287,-1.1548 -0.6758,-0.21449 -1.2287,-0.72512 -1.2287,-1.1356 0,-0.84298 -7.2149,-8.3869 -8.0212,-8.3869 -1.3743,0 -3.6677,-1.52977 -3.3876,-2.25967 0.2194,-0.57152 -0.2847,-0.8121 -1.7029,-0.8121 -1.1083,0 -2.5511,-0.49054 -3.2062,-1.09048 -2.3284,-2.13272 -9.8236,-3.6065 -16.5549,-3.71397 z"
       id="path4391"
       inkscape:connector-curvature="0" />
    <circle
       r="20.185944"
       cy="310.59036"
       cx="2442.1206"
       id="circle4428"
       style="color:#000000;clip-rule:nonzero;display:inline;overflow:visible;visibility:visible;opacity:1;isolation:auto;mix-blend-mode:normal;color-interpolation:sRGB;color-interpolation-filters:linearRGB;solid-color:#000000;solid-opacity:1;fill:#666666;fill-opacity:1;fill-rule:evenodd;stroke:none;stroke-width:1px;stroke-linecap:butt;stroke-linejoin:miter;stroke-miterlimit:4;stroke-dasharray:none;stroke-dashoffset:0;stroke-opacity:1;color-rendering:auto;image-rendering:auto;shape-rendering:auto;text-rendering:auto;enable-background:accumulate" />
    <ellipse
       style="color:#000000;clip-rule:nonzero;display:inline;overflow:visible;visibility:visible;opacity:1;isolation:auto;mix-blend-mode:normal;color-interpolation:sRGB;color-interpolation-filters:linearRGB;solid-color:#000000;solid-opacity:1;fill:#333333;fill-opacity:1;fill-rule:evenodd;stroke:none;stroke-width:1px;stroke-linecap:butt;stroke-linejoin:miter;stroke-miterlimit:4;stroke-dasharray:none;stroke-dashoffset:0;stroke-opacity:1;color-rendering:auto;image-rendering:auto;shape-rendering:auto;text-rendering:auto;enable-background:accumulate"
       id="path4373"
       cx="2443.0667"
       cy="311.33594"
       rx="17.376577"
       ry="19.610708" />
    <path
       style="fill:#dabb52;fill-opacity:1;stroke:none"
       d="m 2390.7589,200.86279 c -0.1257,0.002 -0.2506,0.005 -0.3753,0.008 0.1244,-0.003 0.25,-0.005 0.3753,-0.008 z m 3.2542,0.0518 c 0.1382,0.007 0.2763,0.0144 0.4147,0.0221 -0.1387,-0.008 -0.2763,-0.0154 -0.4147,-0.0221 z m -5.1069,0.0202 c -0.1104,0.007 -0.2171,0.0161 -0.3263,0.024 0.1092,-0.008 0.216,-0.0171 0.3263,-0.024 z m 7.0584,0.10752 c 0.043,0.004 0.086,0.006 0.1286,0.01 -0.043,-0.004 -0.086,-0.006 -0.1286,-0.01 z m -8.6547,0.0326 c -0.094,0.0104 -0.1898,0.0185 -0.2822,0.0298 0.092,-0.0112 0.1886,-0.0193 0.2822,-0.0298 z m -0.5607,0.0662 c -0.2123,0.028 -0.4215,0.0579 -0.6268,0.0902 0.205,-0.0323 0.4147,-0.0622 0.6268,-0.0902 z m -0.9215,0.13919 c -0.192,0.0328 -0.3796,0.0678 -0.5644,0.10463 0.1849,-0.0368 0.3722,-0.0718 0.5644,-0.10463 z m -0.8543,0.16319 c -0.264,0.0569 -0.5214,0.11676 -0.768,0.18239 0.2464,-0.0655 0.5044,-0.12557 0.768,-0.18239 z m 16.3495,0.32062 c 0.1135,0.0217 0.2238,0.0448 0.336,0.0672 -0.1124,-0.0224 -0.2224,-0.0455 -0.336,-0.0672 z m 1.5484,0.32829 c 0.1083,0.0252 0.2187,0.0499 0.3254,0.0758 -0.107,-0.026 -0.2168,-0.0505 -0.3254,-0.0758 z m 1.6597,0.43005 c 0.082,0.0238 0.1586,0.0486 0.239,0.0729 -0.081,-0.0244 -0.1569,-0.049 -0.239,-0.0729 z m 1.2469,0.40318 c 0.1325,0.0469 0.2676,0.0929 0.3946,0.1411 -0.1271,-0.0482 -0.262,-0.0942 -0.3946,-0.1411 z m 0.6105,0.22461 c 0.2077,0.0821 0.4071,0.16689 0.5981,0.25247 -0.191,-0.0856 -0.3904,-0.17038 -0.5981,-0.25247 z m 0.7344,0.31198 c 0.2224,0.10272 0.4302,0.20747 0.6269,0.31486 -0.1966,-0.10731 -0.4047,-0.21222 -0.6269,-0.31486 z m 0.7881,0.40797 c 0.1417,0.0815 0.2762,0.16466 0.4022,0.24862 -0.1262,-0.0841 -0.2601,-0.16697 -0.4022,-0.24862 z m 0.5549,0.3523 c 0.1615,0.11506 0.3132,0.23106 0.4434,0.35037 -0.1301,-0.11915 -0.2821,-0.23545 -0.4434,-0.35037 z m -37.2808,1.22199 c -0.026,0.028 -0.049,0.0601 -0.069,0.095 0.021,-0.0355 0.044,-0.0668 0.07,-0.095 0,0 0,0 0,0 z m -14.3212,4.95611 c -0.04,0.0355 -0.072,0.0718 -0.095,0.10943 0.023,-0.0375 0.056,-0.074 0.096,-0.10943 0,0 0,0 0,0 z m -43.4493,3.00362 c -14.0989,0.0623 -24.7314,1.0948 -31.9465,3.10249 -1.8584,0.51713 -5.172,1.21232 -7.3635,1.54453 -2.1916,0.3322 -4.2744,0.84434 -4.6288,1.13848 -0.3545,0.29414 -2.7083,1.27354 -5.2307,2.17616 -2.5225,0.90262 -6.6125,2.74001 -9.0886,4.08257 -2.4761,1.34258 -4.6597,2.28345 -4.8524,2.09073 -0.1928,-0.19271 -0.7932,0.13725 -1.3343,0.73435 -1.5882,1.75245 -9.3276,7.03441 -9.7251,6.63695 -0.2002,-0.20021 -0.7248,0.15048 -1.1654,0.77946 -0.4405,0.62898 -1.645,1.31216 -2.6772,1.51861 -1.0323,0.20644 -2.477,0.93453 -3.21,1.61748 -0.7331,0.68295 -1.8012,1.24118 -2.3739,1.24118 -0.5726,0 -1.1858,0.55175 -1.3621,1.22584 -0.1763,0.67409 -0.83,1.41556 -1.4534,1.64723 -0.6234,0.23168 -1.638,0.99311 -2.2549,1.69236 -3.7337,4.23222 -4.831,5.26481 -5.2901,4.98107 -0.2826,-0.17466 -0.6579,0.23109 -0.8332,0.90137 -0.1753,0.67029 -0.828,1.41398 -1.4515,1.65205 -1.47,0.56141 -2.9849,2.05351 -3.4787,3.42694 -0.2154,0.59899 -0.8164,1.25131 -1.3353,1.45046 -0.5189,0.19912 -2.303,1.64477 -3.9645,3.21192 -3.5632,3.36092 -3.785,3.54163 -7.5172,6.10035 -1.5814,1.08418 -3.142,1.97074 -3.4673,1.97074 -0.3253,0 -0.7551,0.42639 -0.9551,0.94745 -0.2,0.52106 -1.5423,1.48264 -2.9835,2.1368 -1.4411,0.65415 -2.3921,1.19537 -2.1128,1.20279 0.9414,0.025 -3.1329,3.08522 -4.1075,3.08522 -0.5307,0 -1.2912,0.62203 -1.6904,1.38229 -0.3992,0.76027 -1.7462,2.62637 -2.9931,4.1469 -2.253,2.74721 -2.9492,3.92428 -6.2069,10.49491 -0.3779,0.76219 -0.8413,1.52954 -1.3593,2.27599 l 1.8019,17.23745 c -45.0032,62.97237 21.4392,152.80135 67.1479,177.73764 l 26.3127,-14.14936 c 11.2307,-6.03916 20.7719,-6.01745 30.2858,-3.47495 l 28.795,7.6948 0.5567,0.59035 c 0.4267,0.0638 0.7851,0.25982 1.006,0.61724 0.1997,0.32314 0.7786,0.42808 1.2863,0.23326 0.8269,-0.31734 5.2273,0.55154 7.6382,1.50805 0.5068,0.20109 1.198,0.39638 1.5358,0.43389 1.5715,0.17429 7.5022,1.68606 8.601,2.19248 0.6758,0.31145 4.5462,1.10954 8.601,1.77299 4.0548,0.66345 8.3344,1.49298 9.51,1.84402 1.1756,0.35105 4.7696,0.78797 7.9866,0.97049 3.2171,0.18252 7.2598,0.6323 8.985,1.00024 2.2723,0.48467 5.827,0.47952 12.9014,-0.0192 15.3275,-1.08046 19.1585,-1.60636 22.974,-3.15528 1.5205,-0.61727 3.6872,-1.09949 4.8151,-1.07128 1.1278,0.0282 2.2336,-0.20191 2.4573,-0.51164 0.5903,-0.81735 7.1188,-3.94243 8.2362,-3.94243 0.5218,0 1.8764,-0.86739 3.0103,-1.92754 1.1339,-1.06015 2.8222,-2.19245 3.7515,-2.51694 0.9292,-0.32448 1.6894,-0.97198 1.6894,-1.43797 0,-0.466 0.6804,-1.29244 1.5119,-1.83731 0.8316,-0.54485 1.6639,-1.47016 1.8498,-2.05617 0.186,-0.58599 0.8308,-1.59823 1.4322,-2.24911 0.986,-1.06705 2.9178,-5.41413 4.2122,-9.47738 0.2691,-0.84474 0.4957,-2.75153 0.5031,-4.23809 0.012,-2.42298 0.2279,-2.82364 2.0839,-3.86851 1.1387,-0.64106 2.219,-1.01694 2.4008,-0.83514 0.1818,0.18179 0.6888,0.0324 1.1269,-0.33118 0.9236,-0.76652 8.309,-2.40076 8.9927,-1.98993 0.2534,0.1523 0.4608,0.0183 0.4608,-0.29854 0,-0.31685 0.8984,-0.92271 1.9966,-1.34582 4.2323,-1.63066 12.7923,-5.56425 13.3622,-6.14067 0.1689,-0.17087 1.413,-1.11516 2.7646,-2.0984 2.793,-2.03189 6.38,-5.66092 8.7987,-8.90143 0.905,-1.2125 2.1169,-2.72786 2.6936,-3.36743 1.0213,-1.13278 2.5602,-4.12842 4.8476,-9.43611 0.6189,-1.43605 1.3761,-2.61101 1.6819,-2.61101 1.4008,0 3.9933,-21.84252 2.6887,-22.65241 -1.015,-0.63006 -1.0564,-2.01251 -0.1824,-6.04947 0.489,-2.25856 0.7101,-5.7758 0.5413,-8.60097 -0.4205,-7.04305 -2.4376,-10.44245 -8.8735,-14.94898 -3.0507,-2.13609 -6.3971,-6.20389 -6.5275,-7.93574 -0.052,-0.6861 -0.4657,-1.24791 -0.9206,-1.24791 -0.4547,0 -0.6561,-0.27645 -0.4473,-0.61435 0.2088,-0.33789 -0.068,-0.61436 -0.6144,-0.61436 -0.5467,0 -0.8231,-0.27645 -0.6143,-0.61435 0.2088,-0.33789 0.018,-0.61342 -0.4243,-0.61243 -1.3762,0.003 -6.0265,-2.72374 -6.0265,-3.53351 0,-0.42295 -0.3455,-0.77119 -0.7679,-0.77561 -0.4224,-0.004 -2.0451,-1.23766 -3.6065,-2.74157 -1.5613,-1.50391 -2.9802,-2.59407 -3.1524,-2.42189 -0.5591,0.55914 -8.4464,-4.13072 -8.4464,-5.02236 0,-0.47584 -0.5436,-0.86585 -1.2075,-0.86585 -0.6639,0 -1.5149,-0.57678 -1.8921,-1.28151 -0.3772,-0.70472 -0.8455,-1.12129 -1.0405,-0.92633 -0.5958,0.59572 -2.0034,-0.94156 -2.0034,-2.18768 -3.4752,-1.32324 -7.424,-4.06786 -11.3541,-6.75598 -5.2309,-11.25469 -9.6445,-26.27014 -11.5854,-52.65885 -2.798,-11.28657 -4.3431,-24.59212 -43.1805,-42.12649 -14.3567,-6.5562 -29.7711,-12.18664 -49.3787,-14.14838 -5.7651,-1.0003 -21.4805,-1.85448 -33.1752,-1.80275 z m 143.784,71.48498 c 0.053,0.0424 0.1034,0.0887 0.1497,0.13726 -0.046,-0.0488 -0.096,-0.0947 -0.1497,-0.13726 z m 8.4541,21.39874 c 0.06,0.0368 0.1177,0.0801 0.1728,0.12768 -0.056,-0.0477 -0.1128,-0.0907 -0.1728,-0.12768 z m 0.2179,18.79158 c -0.2444,0.4331 -0.458,0.83729 -0.6538,1.22103 0.1957,-0.38324 0.4104,-0.78969 0.6538,-1.22103 z m -0.8188,1.55509 c -0.1224,0.24902 -0.2294,0.47675 -0.3225,0.6873 0.093,-0.20994 0.2005,-0.43946 0.3225,-0.6873 z m -0.4963,1.08567 c -0.014,0.0367 -0.029,0.0728 -0.042,0.10752 0.013,-0.0343 0.027,-0.0712 0.042,-0.10752 z m -0.1987,0.59036 -0.6681,0.76122 c 0.6063,-0.26266 0.9272,-0.4791 0.6988,-0.4982 -0.06,-0.005 -0.066,-0.10241 -0.03,-0.26302 z m -1.4226,1.16536 c -0.083,0.0632 -0.1615,0.13147 -0.2352,0.2035 0.074,-0.0718 0.1526,-0.14051 0.2352,-0.2035 z"
       id="path4201"
       inkscape:connector-curvature="0" />
    <path
       style="opacity:0.403;fill:#000000;fill-rule:evenodd;stroke:none;stroke-width:1px;stroke-linecap:butt;stroke-linejoin:miter;stroke-opacity:1"
       d="m 2318.0334,257.43982 c 0,0 8.7765,10.18073 9.1276,27.73372 0.3511,17.553 -11.585,93.38193 -35.8081,106.37114 -24.2232,12.98922 -43.5315,12.98922 -51.9569,-2.10635 -8.4254,-15.09558 78.6374,-131.99851 78.6374,-131.99851 z"
       id="path4365"
       inkscape:connector-curvature="0" />
    <path
       style="fill:#e1ca67;fill-opacity:1;fill-rule:evenodd;stroke:none;stroke-width:1px;stroke-linecap:butt;stroke-linejoin:miter;stroke-opacity:1"
       d="m 2260.4596,397.86377 c -37.327,-0.009 -87.6777,-71.38075 -83.9033,-103.56267 0,0 6.5752,-12.08409 11.706,-16.89743 6.2202,-5.83548 15.3697,-9.39488 22.3468,-15.04902 8.0369,-6.51288 13.278,-16.8066 22.2923,-21.59018 9.5283,-5.05634 21.6221,-3.74629 32.122,-6.84567 9.1956,-2.71438 17.4043,-8.76795 26.8781,-10.24265 6.6515,-1.03537 15.324,-2.97121 20.1639,1.11509 5.2749,4.45355 12.4981,12.66243 10.9838,23.22092 -8.8277,61.54863 -28.8581,148.62235 -62.5896,149.85161 z"
       id="path4353"
       inkscape:connector-curvature="0"
       sodipodi:nodetypes="ccsssssssc" />
    <path
       style="fill:#b48136;fill-opacity:1;fill-rule:evenodd;stroke:none;stroke-width:1px;stroke-linecap:butt;stroke-linejoin:miter;stroke-opacity:1"
       d="m 2280.3364,227.43172 c -5.0633,2.26356 -10.0252,4.92637 -15.3129,6.4872 -10.4998,3.09938 -22.5938,1.78892 -32.1221,6.84526 -9.0143,4.78358 -14.2556,15.07785 -22.2924,21.59073 -6.9772,5.65413 -16.127,9.21333 -22.3472,15.04881 -5.1307,4.81334 -11.7054,16.89764 -11.7054,16.89764 -3.4367,29.30299 37.9996,91.0894 73.6198,101.91761 6.0017,-0.17871 11.0536,3.75414 24.3083,-19.44624 17.2541,-30.20041 31.5615,-66.76423 32.7672,-139.01313 -1.2787,-13.05894 -12.6234,-13.53542 -26.9153,-10.32788 z"
       id="path4360"
       inkscape:connector-curvature="0"
       sodipodi:nodetypes="cssssccscc" />
    <path
       style="color:#000000;clip-rule:nonzero;display:inline;overflow:visible;visibility:visible;opacity:0.403;isolation:auto;mix-blend-mode:normal;color-interpolation:sRGB;color-interpolation-filters:linearRGB;solid-color:#000000;solid-opacity:1;fill:#000000;fill-opacity:1;fill-rule:evenodd;stroke:none;stroke-width:1px;stroke-linecap:butt;stroke-linejoin:miter;stroke-miterlimit:4;stroke-dasharray:none;stroke-dashoffset:0;stroke-opacity:1;color-rendering:auto;image-rendering:auto;shape-rendering:auto;text-rendering:auto;enable-background:accumulate"
       d="m 2371.7456,316.5934 c -60.1767,20.00737 -51.6013,51.68886 4.8763,39.77403"
       id="path4435"
       inkscape:connector-curvature="0"
       sodipodi:nodetypes="cc" />
    <circle
       style="color:#000000;clip-rule:nonzero;display:inline;overflow:visible;visibility:visible;opacity:1;isolation:auto;mix-blend-mode:normal;color-interpolation:sRGB;color-interpolation-filters:linearRGB;solid-color:#000000;solid-opacity:1;fill:#666666;fill-opacity:1;fill-rule:evenodd;stroke:none;stroke-width:1px;stroke-linecap:butt;stroke-linejoin:miter;stroke-miterlimit:4;stroke-dasharray:none;stroke-dashoffset:0;stroke-opacity:1;color-rendering:auto;image-rendering:auto;shape-rendering:auto;text-rendering:auto;enable-background:accumulate"
       id="path4367"
       cx="2371.7456"
       cy="336.77933"
       r="20.185944" />
    <circle
       r="17.201935"
       cy="336.25272"
       cx="2373.3254"
       id="circle4369"
       style="color:#000000;clip-rule:nonzero;display:inline;overflow:visible;visibility:visible;opacity:1;isolation:auto;mix-blend-mode:normal;color-interpolation:sRGB;color-interpolation-filters:linearRGB;solid-color:#000000;solid-opacity:1;fill:#333333;fill-opacity:1;fill-rule:evenodd;stroke:none;stroke-width:1px;stroke-linecap:butt;stroke-linejoin:miter;stroke-miterlimit:4;stroke-dasharray:none;stroke-dashoffset:0;stroke-opacity:1;color-rendering:auto;image-rendering:auto;shape-rendering:auto;text-rendering:auto;enable-background:accumulate" />
    <ellipse
       style="color:#000000;clip-rule:nonzero;display:inline;overflow:visible;visibility:visible;opacity:1;isolation:auto;mix-blend-mode:normal;color-interpolation:sRGB;color-interpolation-filters:linearRGB;solid-color:#000000;solid-opacity:1;fill:#ffffff;fill-opacity:1;fill-rule:evenodd;stroke:none;stroke-width:1px;stroke-linecap:butt;stroke-linejoin:miter;stroke-miterlimit:4;stroke-dasharray:none;stroke-dashoffset:0;stroke-opacity:1;color-rendering:auto;image-rendering:auto;shape-rendering:auto;text-rendering:auto;enable-background:accumulate"
       id="path4371"
       cx="2168.4766"
       cy="1044.2936"
       rx="1.5797694"
       ry="2.1063592"
       transform="matrix(0.95225519,-0.3053032,0.3053032,0.95225519,0,0)" />
    <ellipse
       style="color:#000000;clip-rule:nonzero;display:inline;overflow:visible;visibility:visible;opacity:1;isolation:auto;mix-blend-mode:normal;color-interpolation:sRGB;color-interpolation-filters:linearRGB;solid-color:#000000;solid-opacity:1;fill:#ffffff;fill-opacity:1;fill-rule:evenodd;stroke:none;stroke-width:1px;stroke-linecap:butt;stroke-linejoin:miter;stroke-miterlimit:4;stroke-dasharray:none;stroke-dashoffset:0;stroke-opacity:1;color-rendering:auto;image-rendering:auto;shape-rendering:auto;text-rendering:auto;enable-background:accumulate"
       id="path4389"
       cx="2269.9197"
       cy="984.4212"
       rx="1.3653026"
       ry="2.2961905"
       transform="matrix(0.95953989,-0.28157274,0.28157274,0.95953989,0,0)" />
    <path
       style="fill:#594d3c;fill-opacity:1;fill-rule:evenodd;stroke:none;stroke-width:1px;stroke-linecap:butt;stroke-linejoin:miter;stroke-opacity:1"
       d="m 2452.1675,387.18604 c -0.1609,3.05418 1.5348,6.6789 6.9921,11.7313 12.9346,5.99534 24.2877,12.78088 31.9465,21.4141 l 14.7444,-29.13769 1.6665,-1.78355 c 0.063,-0.87375 0.261,-2.02441 0.5952,-3.56807 0.489,-2.25854 0.7101,-5.77579 0.5413,-8.60096 -0.4205,-7.04305 -2.4376,-10.44244 -8.8735,-14.94897 -1.4501,-1.01543 -2.9576,-2.46731 -4.1641,-3.89732 l -0.2564,-0.006 -2.4267,-2.96523 c -18.5542,-0.0516 -31.6882,10.73251 -44.7485,32.35085 z m 38.9386,33.1454 c -0.2961,-0.0578 0.3219,1.49411 0.031,1.46499 0.2401,0.0586 -0.4001,-1.48319 -0.031,-1.46499 z"
       id="path4423"
       inkscape:connector-curvature="0"
       sodipodi:nodetypes="cccccscscccccccc" />
    <path
       style="fill:#594d3c;fill-opacity:1;fill-rule:evenodd;stroke:none;stroke-width:1px;stroke-linecap:butt;stroke-linejoin:miter;stroke-opacity:1"
       d="m 2475.3085,427.87936 c -30.4375,44.41861 -69.6063,51.00119 -115.9272,26.59104 0,0 -15.1474,-9.79904 -22.5896,-14.8942 -3.1828,-2.17901 -5.8861,-5.18657 -9.433,-6.70239 -4.0291,-1.72189 -12.9084,-2.48237 -12.9084,-2.48237 95.7707,67.50506 132.3243,38.99794 160.8582,-2.51208 z"
       id="path4433"
       inkscape:connector-curvature="0"
       sodipodi:nodetypes="ccsscc" />
    <path
       style="color:#000000;clip-rule:nonzero;display:inline;overflow:visible;visibility:visible;opacity:0.403;isolation:auto;mix-blend-mode:normal;color-interpolation:sRGB;color-interpolation-filters:linearRGB;solid-color:#000000;solid-opacity:1;fill:#000000;fill-opacity:1;fill-rule:evenodd;stroke:none;stroke-width:1px;stroke-linecap:butt;stroke-linejoin:miter;stroke-miterlimit:4;stroke-dasharray:none;stroke-dashoffset:0;stroke-opacity:1;color-rendering:auto;image-rendering:auto;shape-rendering:auto;text-rendering:auto;enable-background:accumulate"
       d="m 2430.7237,373.28957 c 13.5407,-16.43534 31.0209,-23.55956 49.6749,-27.90925 -15.8923,3.7525 -32.3792,12.46101 -49.6749,27.90925 z"
       id="path4451"
       inkscape:connector-curvature="0"
       sodipodi:nodetypes="ccc" />
    <path
       style="color:#000000;clip-rule:nonzero;display:inline;overflow:visible;visibility:visible;opacity:0.403;isolation:auto;mix-blend-mode:normal;color-interpolation:sRGB;color-interpolation-filters:linearRGB;solid-color:#000000;solid-opacity:1;fill:#000000;fill-opacity:1;fill-rule:evenodd;stroke:none;stroke-width:1px;stroke-linecap:butt;stroke-linejoin:miter;stroke-miterlimit:4;stroke-dasharray:none;stroke-dashoffset:0;stroke-opacity:1;color-rendering:auto;image-rendering:auto;shape-rendering:auto;text-rendering:auto;enable-background:accumulate"
       d="m 2414.0483,363.81096 c 17.2606,-19.42295 35.1676,-25.91525 53.3611,-26.68056 -18.8867,0.92057 -36.3333,12.28296 -53.3611,26.68056 z"
       id="path4453"
       inkscape:connector-curvature="0"
       sodipodi:nodetypes="ccc" />
    <path
       style="fill:#dabb52;fill-opacity:1;stroke:none"
       d="m 2175.0013,293.99994 c -1.7525,2.5259 -4.1537,4.80269 -6.1896,5.74614 -0.7187,0.33305 -2.2369,1.96748 -3.3741,3.6314 -1.1373,1.66393 -2.2883,2.88825 -2.5583,2.7214 -0.2699,-0.16685 -0.5836,-0.0811 -0.6969,0.19007 -0.3875,0.92702 -10.6464,5.62947 -12.9081,5.91701 -2.5828,0.32835 -4.7371,1.40944 -5.9103,2.96618 -0.4457,0.59132 -1.1956,1.07512 -1.6664,1.07512 -0.4709,0 -1.1068,0.44925 -1.414,0.99833 -0.3073,0.54908 -1.2889,0.99832 -2.1809,0.99832 -0.9534,0 -1.6223,0.34218 -1.6223,0.83034 0,1.37309 -2.7585,2.80439 -4.5424,2.35663 -1.228,-0.3082 -1.6013,-0.17142 -1.6013,0.58651 0,1.36791 -3.7994,1.30255 -11.7955,-0.2035 -7.1999,-1.35609 -15.0059,-2.41527 -22.6082,-3.06697 -5.2221,-0.44767 -25.161,-0.34421 -29.7963,0.15454 -13.0856,1.40803 -24.009,3.27381 -31.9464,5.45624 -2.3653,0.65034 -5.9593,1.61402 -7.9866,2.14256 -2.0275,0.52855 -3.9942,1.20595 -4.3706,1.50421 -0.3764,0.29829 -2.4499,1.11037 -4.6077,1.80563 -2.1578,0.69525 -6.0846,2.35697 -8.7257,3.69189 -2.6412,1.33492 -5.0362,2.28223 -5.3229,2.10513 -0.2865,-0.1771 -0.6133,-0.0969 -0.7266,0.17854 -0.1133,0.27545 -1.814,1.45213 -3.7793,2.61485 -1.9652,1.16272 -5.0063,3.00384 -6.7579,4.09122 -1.7516,1.08738 -3.5997,2.17295 -4.1066,2.4123 -0.5068,0.23935 -2.0558,1.35361 -3.4422,2.47661 -1.3864,1.12302 -2.9926,2.04177 -3.569,2.04177 -0.5765,0 -0.877,0.27647 -0.6681,0.61437 0.2087,0.33789 0.087,0.64887 -0.2708,0.69115 -0.3577,0.0422 -0.8707,0.11131 -1.1394,0.15358 -0.2687,0.0422 -1.2507,0.83892 -2.1819,1.77011 -0.9312,0.93119 -2.854,2.28368 -4.2727,3.00554 -1.4187,0.72187 -3.3743,2.24053 -4.3465,3.37511 -0.9722,1.13459 -2.1289,2.06289 -2.5697,2.06289 -0.4408,0 -1.4045,0.84727 -2.1416,1.88242 -0.7371,1.03514 -1.6559,1.76075 -2.0418,1.61268 -0.3858,-0.14807 -1.0569,0.1105 -1.4908,0.575 -0.4339,0.46451 -0.5726,0.84474 -0.3091,0.84474 0.7061,0 -6.0156,6.13102 -6.8155,6.2165 -0.3745,0.04 -1.0638,0.0193 -1.532,-0.046 -0.5408,-0.0755 -0.7159,0.23386 -0.48,0.84857 0.2042,0.5322 0.1036,0.96761 -0.2237,0.96761 -0.3273,0 -0.5951,0.40904 -0.5951,0.9081 0,0.49905 -0.7307,1.38622 -1.6242,1.97169 -1.9831,1.29936 -8.2055,7.45976 -8.2055,8.12388 0,0.26349 -0.5856,1.00548 -1.3007,1.64916 -1.8389,1.6552 -4.8429,6.13366 -4.8429,7.21964 0,0.50226 -0.2441,1.00567 -0.5423,1.11831 -0.7786,0.29417 -5.1748,9.74597 -5.3775,11.56138 -0.094,0.83971 -0.4342,2.08378 -0.7565,2.7646 -0.3222,0.68083 -0.8718,3.03434 -1.221,5.23066 -1.7078,10.74362 -2.8359,14.74451 -4.1574,14.74451 -0.4659,0 -0.8467,0.27551 -0.8467,0.61244 0,0.33692 -0.9676,1.68403 -2.1502,2.99306 -1.1827,1.30903 -2.1503,2.56387 -2.1503,2.7886 0,0.22471 -1.408,2.24571 -3.1293,4.4915 -1.7214,2.2458 -3.354,4.65499 -3.6277,5.35353 -0.2736,0.69854 -1.008,1.82291 -1.6318,2.4987 -0.6238,0.67579 -1.6414,2.611 -2.2616,4.30047 -2.1502,5.85733 -2.5638,6.82094 -3.6333,8.45315 -0.5912,0.90218 -1.0752,2.63485 -1.0752,3.84931 0,1.21447 -0.2564,2.04944 -0.5702,1.85554 -0.3137,-0.1939 -1.0141,1.7939 -1.556,4.4176 -0.5419,2.62369 -1.3912,5.55268 -1.8872,6.50928 -0.496,0.95659 -0.9136,2.61535 -0.9282,3.68613 -0.014,1.07077 -0.4251,3.05258 -0.912,4.40416 -1.2726,3.53256 -1.2443,22.23096 0.036,23.92432 0.4961,0.6559 0.9023,1.80277 0.9023,2.54861 0,0.74585 0.7846,2.84791 1.7442,4.67198 0.9595,1.82405 2.239,4.61107 2.8433,6.19346 0.6044,1.58238 1.3189,2.74159 1.5877,2.57549 0.5572,-0.3444 3.0402,2.91453 3.0402,3.99042 0,0.39017 0.2552,0.55188 0.5672,0.35902 0.3121,-0.19287 1.2007,0.55087 1.9746,1.65299 0.7739,1.10214 1.6263,2.09643 1.8939,2.20976 0.2678,0.11334 0.3613,0.40815 0.2084,0.65564 -0.153,0.24747 0.3042,0.84654 1.0156,1.33046 0.7114,0.48392 2.5427,2.05425 4.0701,3.4903 1.5272,1.43606 3.1154,2.61101 3.5287,2.61101 0.4133,0 1.0404,0.82938 1.3938,1.84306 0.3533,1.01369 1.0375,1.84307 1.5205,1.84307 0.4831,0 1.2228,0.41469 1.6434,0.92153 0.4206,0.50685 1.1749,0.92153 1.6761,0.92153 0.5011,0 1.6863,0.62204 2.634,1.3823 3.6119,2.89774 4.5641,3.53254 5.2969,3.53254 0.4158,0 1.5417,1.17068 2.5025,2.60141 0.9609,1.43074 2.4264,2.94037 3.2561,3.354 1.7728,0.88381 3.1622,2.60685 2.7022,3.35111 -0.1781,0.28811 0.056,0.52315 0.5213,0.52315 0.4646,0 1.655,0.90094 2.6464,2.00146 0.9915,1.10052 2.5426,2.4755 3.4462,3.05545 0.9035,0.57995 1.8206,1.61425 2.038,2.29904 0.2173,0.68479 0.8812,1.24503 1.4754,1.24503 1.1897,0 3.9785,2.64013 3.4,3.21864 -0.1995,0.19948 0.6532,0.8449 1.8949,1.43413 1.2418,0.58923 2.5529,1.71899 2.9135,2.51022 0.3604,0.79123 0.9752,1.43797 1.3668,1.43797 0.3917,0 1.2842,0.65794 1.9833,1.46197 0.6991,0.80404 1.5173,1.56431 1.8181,1.68948 0.3007,0.12518 1.6343,1.54068 2.9633,3.14569 1.3289,1.605 2.9369,2.91819 3.5728,2.91819 0.636,0 1.2977,0.54395 1.4716,1.20854 0.1738,0.66461 0.8391,1.37426 1.4783,1.57717 0.6394,0.20291 1.1625,0.62657 1.1625,0.94073 0,0.31415 0.9675,1.64179 2.1502,2.95082 1.1826,1.30903 2.1503,2.69228 2.1503,3.0737 0,0.38142 0.4108,0.69306 0.9129,0.69306 1.1798,0 3.8606,4.05608 4.3724,6.61488 0.2185,1.09263 0.6175,1.98609 0.887,1.98609 0.2694,0 0.8096,0.96761 1.2,2.15024 0.3902,1.18264 0.9649,2.15024 1.2766,2.15024 0.3117,0 0.5664,0.36759 0.5664,0.8169 0,0.44932 2.419,3.31407 5.3756,6.3653 4.1106,4.24219 6.3153,5.98799 9.3689,7.41929 5.1175,2.39864 8.601,3.83004 8.601,3.53446 0,-0.12784 1.783,0.27712 3.9626,0.90041 3.0728,0.87878 5.6361,1.09715 11.4135,0.97049 5.3646,-0.11761 7.6676,0.0534 8.2257,0.61148 1.3212,1.3212 17.7468,2.22695 31.3829,1.73075 6.7579,-0.24589 13.8768,-0.43751 15.8196,-0.42621 1.943,0.0112 3.5326,-0.1594 3.5326,-0.37821 0,-0.21881 1.7113,-0.46551 3.8022,-0.54812 2.0911,-0.0826 4.12,-0.41465 4.5098,-0.73819 0.3898,-0.32354 0.8677,-0.43011 1.0607,-0.2371 0.1931,0.19306 1.9645,-0.0607 3.9367,-0.56348 3.7798,-0.96369 6.7673,-1.41541 12.769,-1.93137 2.0096,-0.17281 4.5643,-0.4851 5.678,-0.69403 2.4028,-0.45079 5.3081,0.15759 4.7862,1.00216 -0.2027,0.32802 -0.086,0.59612 0.2592,0.59612 0.3447,0 1.0383,1.3132 1.5416,2.91818 1.5479,4.93617 2.617,7.63398 3.1908,8.04998 0.3021,0.2189 0.9638,1.13016 1.4707,2.02544 1.3025,2.30088 3.7288,5.4518 5.5291,7.18124 0.8447,0.81148 1.4668,1.71864 1.3824,2.01584 -0.084,0.29721 0.51,0.54045 1.3208,0.54045 1.2225,0 6.0841,2.70181 8.7094,4.83996 0.3639,0.29637 1.2624,0.72975 1.9967,0.96281 0.7343,0.23306 1.3353,0.801 1.3353,1.2623 0,0.46131 0.5528,1.01423 1.2286,1.22872 0.6759,0.21448 1.2287,0.64767 1.2287,0.96281 0,0.31514 0.2965,0.57307 0.6585,0.57307 0.3621,0 1.0439,0.34556 1.5149,0.76794 1.986,1.7811 2.7198,2.30384 3.2359,2.30384 0.3005,0 1.1425,0.48382 1.8708,1.07512 0.7284,0.5913 2.1869,1.76624 3.2407,2.611 1.054,0.84472 2.2279,1.82207 2.6092,2.17137 0.3813,0.3493 1.9371,1.35977 3.4577,2.24527 1.5204,0.8855 3.3694,2.11988 4.1085,2.74348 0.739,0.62359 3.5883,2.51597 6.3316,4.20545 2.7434,1.68947 6.3788,3.97025 8.0788,5.06842 1.7,1.09816 3.4288,1.99666 3.8416,1.99666 0.4128,0 1.287,0.40623 1.9429,0.90234 0.6559,0.49601 1.9706,0.91068 2.922,0.92149 0.9515,0.0108 2.3286,0.33987 3.0603,0.73148 0.7317,0.39156 2.7179,1.02105 4.4138,1.39861 4.0482,0.90128 18.4666,0.51895 20.8996,-0.55385 1.0136,-0.44715 2.7756,-1.00926 3.9155,-1.24985 1.1399,-0.24057 2.9486,-0.95509 4.0192,-1.58674 1.0706,-0.6317 2.7644,-1.17516 3.7639,-1.2076 8.8242,-0.28727 12.2653,-0.53816 16.1595,-1.18071 2.4818,-0.4096 5.0285,-0.6105 5.6597,-0.4454 0.6312,0.16509 1.4647,-0.0809 1.8517,-0.54716 0.3869,-0.46627 2.2627,-1.3285 4.169,-1.91602 1.9063,-0.58757 3.6876,-1.42176 3.9578,-1.85363 0.2702,-0.43186 0.8351,-0.78522 1.2556,-0.78522 0.8901,0 5.1194,-4.00334 6.7386,-6.37873 0.6124,-0.89824 1.3963,-1.45796 1.7423,-1.24407 0.3461,0.21385 1.5037,-0.42554 2.5726,-1.42069 1.069,-0.99516 3.5281,-2.5892 5.464,-3.54214 6.7236,-3.3098 11.5349,-10.20502 11.5278,-16.52039 -0.01,-3.84935 -1.0159,-10.301 -1.6905,-10.78192 -0.2719,-0.19385 -1.7142,-2.42577 -3.2052,-4.95996 -1.491,-2.53423 -3.2101,-5.10231 -3.8205,-5.70678 -0.6104,-0.60448 -1.1097,-1.50301 -1.1097,-1.99665 0,-0.4937 -0.2927,-0.89753 -0.6508,-0.89753 -0.3581,0 -2.1129,-1.3823 -3.8992,-3.07178 -1.7864,-1.68947 -3.6889,-3.07177 -4.2276,-3.07177 -1.2823,0 -1.8892,-1.01199 -0.8466,-1.41206 0.9045,-0.34708 6.018,0.48613 8.3955,1.3679 0.8447,0.31332 2.854,0.74582 4.4656,0.96089 1.6115,0.21507 2.7709,0.64947 2.5755,0.96569 -0.1955,0.31622 -0.1322,0.5798 0.1411,0.5798 1.9247,0.018 8.5838,1.41199 9.2038,1.92658 0.4192,0.34787 1.0627,0.44602 1.4303,0.21886 0.3675,-0.22717 1.3332,0.0227 2.1454,0.55484 0.8122,0.53218 1.9094,0.80096 2.4383,0.59803 0.5288,-0.20293 1.3794,-0.0216 1.8901,0.40221 0.5107,0.424 1.0879,0.6102 1.2833,0.41469 0.1956,-0.19551 1.0446,-0.0935 1.8864,0.22655 0.8417,0.32 4.0615,0.99288 7.1552,1.49556 4.5588,0.74077 6.9063,0.78943 12.3832,0.25343 6.4844,-0.6346 12.2514,-1.95979 13.485,-3.09865 0.3211,-0.29637 1.367,-0.53949 2.325,-0.53949 0.958,0 2.3541,-0.4007 3.1025,-0.89081 1.2527,-0.82048 6.8263,-1.76676 10.1157,-1.71731 0.7603,0.0114 1.3823,-0.2258 1.3823,-0.52796 0,-0.30212 0.5529,-0.55004 1.2287,-0.55004 0.6758,0 1.2287,-0.27647 1.2287,-0.61436 0,-0.3379 0.8985,-0.62367 1.9967,-0.63547 1.0981,-0.012 2.6878,-0.41753 3.5325,-0.90042 0.8448,-0.48293 2.0198,-0.88765 2.6111,-0.89945 0.5913,-0.012 1.6221,-0.5059 2.2903,-1.0972 0.6681,-0.59135 2.5827,-2.18096 4.2554,-3.53254 1.6727,-1.35158 3.0617,-2.83568 3.0862,-3.29832 0.06,-1.14139 3.9091,-7.40507 6.7885,-11.04782 2.9779,-3.76728 4.7,-7.14836 6.4057,-12.57604 l 1.3516,-4.30336 -1.414,-4.88412 c -0.7781,-2.68627 -1.4149,-5.23352 -1.4149,-5.66071 0,-0.42718 -0.4287,-1.13208 -0.9523,-1.5666 -0.5236,-0.43452 -1.4736,-1.91944 -2.1118,-3.30023 -0.6382,-1.3808 -1.7992,-3.12085 -2.5803,-3.8666 -3.4636,-3.30665 -6.5162,-5.61607 -8.793,-6.65232 -1.3516,-0.61514 -3.1795,-1.61353 -4.0624,-2.21935 -0.8829,-0.6058 -1.7381,-0.96891 -1.9006,-0.80634 -0.1626,0.16257 -1.454,-0.11311 -2.8693,-0.61243 -1.4152,-0.49933 -4.9759,-1.22762 -7.9127,-1.61844 -2.9368,-0.39083 -5.8996,-1.05347 -6.5842,-1.47254 -0.6931,-0.42434 -3.5587,-0.80326 -6.467,-0.85529 -2.8721,-0.0514 -6.0514,-0.24728 -7.0651,-0.43581 -4.0619,-0.75548 -10.5146,-3.63214 -12.5222,-5.58199 -1.1568,-1.12338 -2.4311,-2.04273 -2.8318,-2.04273 -0.4008,0 -1.052,-0.62204 -1.4466,-1.3823 -0.3947,-0.76026 -2.2305,-3.17928 -4.0798,-5.3756 -1.8492,-2.19632 -3.3675,-4.561 -3.3741,-5.25562 -0.01,-0.69462 -0.7037,-2.20037 -1.5484,-3.34535 -0.8447,-1.14498 -1.5359,-2.56413 -1.5359,-3.15433 0,-0.59021 -0.2693,-1.2396 -0.598,-1.44277 -0.8743,-0.54035 -2.8969,-7.46818 -3.4173,-11.70538 -0.2476,-2.01531 -0.7337,-4.3552 -1.0809,-5.19994 -0.3472,-0.84473 -0.5864,-1.74323 -0.5318,-1.99665 0.055,-0.25342 -0.2457,-0.46077 -0.6662,-0.46077 -0.4205,0 1.7912,-2.48099 4.9148,-5.51383 3.1884,-3.0957 5.7136,-6.05973 5.7567,-6.7579 0.042,-0.68401 0.1459,-1.52053 0.2304,-1.85843 0.084,-0.33789 0.1881,-0.84992 0.2304,-1.13847 0.042,-0.28856 0.7302,-1.23058 1.5292,-2.09265 0.7989,-0.86206 2.0622,-2.42252 2.8068,-3.46823 0.9638,-1.35355 2.5293,-2.09541 3.6266,-1.93138 l -0.5567,-0.59035 -28.795,-7.69479 c -9.5139,-2.5425 -19.0551,-2.56422 -30.2858,3.47494 l -26.3127,14.14936 c -45.7087,-24.93631 -112.151,-114.76529 -67.1479,-177.73767 l -1.8019,-17.23744 z"
       id="path4690"
       inkscape:connector-curvature="0" />
    <path
       style="opacity:0.55800003;fill:url(#linearGradient4163);fill-opacity:1;fill-rule:evenodd;stroke:none;stroke-width:1px;stroke-linecap:butt;stroke-linejoin:miter;stroke-opacity:1"
       d="m 2177.4453,289.56986 c -0.354,0.70256 -0.649,1.27519 -1.0847,2.15409 -0.3779,0.76219 -0.8413,1.52954 -1.3593,2.27599 l 1.8019,17.23745 c -45.0032,62.97237 21.4392,152.80135 67.1479,177.73764 l 21.6435,-11.63819 c -80.1035,-24.91073 -89.7133,-102.18888 -88.1493,-187.76698 z"
       id="path4152"
       inkscape:connector-curvature="0" />
    <path
       style="fill:#b48136;fill-opacity:1;fill-rule:evenodd;stroke:none;stroke-width:1px;stroke-linecap:butt;stroke-linejoin:miter;stroke-opacity:1"
       d="m 2175.152,300.62057 c -16.0388,7.56023 -26.0997,28.01043 -34.7158,51.57605 l 48.655,128.58733 c 79.5666,51.69347 111.1204,36.169 132.7621,6.7675 0.028,-0.14863 0.07,-0.31604 0.085,-0.42332 0.042,-0.28857 0.7302,-1.23059 1.5292,-2.09266 0.26,-0.28057 0.5739,-0.6452 0.8984,-1.03192 1.2026,-1.74836 2.3832,-3.5269 3.5374,-5.34296 l -27.3541,-7.30987 c -9.5139,-2.5425 -19.0551,-2.56421 -30.2858,3.47495 l -26.3127,14.14936 C 2198.242,464.03874 2131.7996,374.20976 2176.8028,311.23739 l -1.0992,-10.51699 -0.552,-0.0998 z"
       id="path4172"
       inkscape:connector-curvature="0" />
    <path
       style="fill:#000000;fill-rule:evenodd;stroke:none;stroke-width:1px;stroke-linecap:butt;stroke-linejoin:miter;stroke-opacity:1"
       d="m 2175.152,300.62018 c -74.0119,54.76741 58.5378,279.8555 145.6284,188.7275 l -10.1192,12.51757 C 2190.5046,583.03296 2076.4991,376.21731 2153.2986,311.06421 Z"
       id="path4165"
       inkscape:connector-curvature="0"
       sodipodi:nodetypes="ccccc" />
    <path
       style="opacity:0.74199997;fill:#000000;fill-rule:evenodd;stroke:#000000;stroke-width:0.49148384px;stroke-linecap:butt;stroke-linejoin:miter;stroke-opacity:1"
       d="m 2289.7475,469.74092 c -6.1051,-0.0963 -12.4645,1.31028 -19.4837,5.08475 l -26.3127,14.14936 c 25.2582,12.13901 49.7065,14.39897 71.6751,-13.59548 l -15.0766,-4.02883 c -3.5678,-0.95343 -7.1391,-1.55202 -10.8021,-1.6098 z"
       id="path4167"
       inkscape:connector-curvature="0"
       sodipodi:nodetypes="sscccs" />
    <path
       style="fill:#594d3c;fill-opacity:1;fill-rule:evenodd;stroke:none;stroke-width:1px;stroke-linecap:butt;stroke-linejoin:miter;stroke-opacity:1"
       d="m 2314.6986,570.89348 c 21.2583,3.74812 54.648,14.62387 37.732,53.61916 17.8008,-29.65596 -1.5674,-45.98726 -33.0808,-57.9646 -2.9731,-1.03648 -9.204,3.05495 -4.6512,4.34544 z"
       id="path4177"
       inkscape:connector-curvature="0"
       sodipodi:nodetypes="cccc" />
    <path
       style="fill:#594d3c;fill-opacity:1;fill-rule:evenodd;stroke:none;stroke-width:1px;stroke-linecap:butt;stroke-linejoin:miter;stroke-opacity:1"
       d="m 2337.6928,554.96306 c 27.207,2.07113 48.8668,11.50684 49.1484,49.32392 -1.1935,-22.21827 0.9963,-45.66096 -47.8153,-50.64596 z"
       id="path4179"
       inkscape:connector-curvature="0"
       sodipodi:nodetypes="cccc" />
    <path
       style="fill:#594d3c;fill-opacity:1;fill-rule:evenodd;stroke:none;stroke-width:1px;stroke-linecap:butt;stroke-linejoin:miter;stroke-opacity:1"
       d="m 2242.4617,611.60432 c 29.8148,14.41464 37.8678,35.35782 35.0014,59.57683 0.5074,-19.54997 9.3452,-38.58466 -33.5033,-60.81645 -0.9854,0.13279 -1.9951,0.25159 -1.4981,1.23962 z"
       id="path4181"
       inkscape:connector-curvature="0"
       sodipodi:nodetypes="cccc" />
    <path
       style="fill:#594d3c;fill-opacity:1;fill-rule:evenodd;stroke:none;stroke-width:1px;stroke-linecap:butt;stroke-linejoin:miter;stroke-opacity:1"
       d="m 2209.907,619.38255 c 18.0659,10.24257 44.5964,27.97299 26.5049,67.75455 7.1093,-8.56425 22.623,-44.90152 -24.1792,-69.81703 -0.8109,-0.48832 -4.4411,0.5418 -2.3257,2.06248 z"
       id="path4183"
       inkscape:connector-curvature="0"
       sodipodi:nodetypes="cccc" />
    <path
       style="opacity:0.625;fill:#594d3c;fill-opacity:1;fill-rule:evenodd;stroke:none;stroke-width:1px;stroke-linecap:butt;stroke-linejoin:miter;stroke-opacity:1"
       d="m 2123.6804,627.36735 c -9.045,-24.52094 -18.4131,-48.64423 -19.0914,-83.46268 -10.1868,-39.23571 -14.7121,-85.75033 -20.537,-130.59427 3.9733,39.77315 4.9199,71.97982 17.553,133.40275 1.7836,35.4399 9.5293,55.54837 15.6212,79.9095 z"
       id="path4185"
       inkscape:connector-curvature="0"
       sodipodi:nodetypes="cccccc" />
    <path
       style="fill:#594d3c;fill-opacity:1;fill-rule:evenodd;stroke:none;stroke-width:1px;stroke-linecap:butt;stroke-linejoin:miter;stroke-opacity:1"
       d="m 2029.7228,563.44637 c 3.37,24.30015 8.1392,50.27932 5.2129,67.02394 l 4.2201,0.74471 c 2.2796,-21.68556 -4.0668,-44.80877 -9.433,-67.76865 z"
       id="path4187"
       inkscape:connector-curvature="0"
       sodipodi:nodetypes="cccc" />
    <path
       style="fill:#594d3c;fill-opacity:1;fill-rule:evenodd;stroke:none;stroke-width:1px;stroke-linecap:butt;stroke-linejoin:miter;stroke-opacity:1"
       d="m 2071.6748,631.95974 c 12.3546,-23.08603 1.855,-46.17205 -5.4612,-69.25808 10.6102,21.12733 21.1912,42.26382 9.1847,70.49926 z"
       id="path4189"
       inkscape:connector-curvature="0"
       sodipodi:nodetypes="cccc" />
  </g>
</svg>
